<svg xmlns="http://www.w3.org/2000/svg" xmlns:xlink="http://www.w3.org/1999/xlink" width="70" height="70" viewBox="0 0 70 70"><defs><path id="b0i9a" d="M996.9 2441.34c0 .83-.31 1.58-.82 2.16a3.22 3.22 0 0 1-1.34 5.2v2.36h-2.16v-2.16h-2.16v2.16h-2.16v-2.16h-2.16v-10.8h2.16v-2.17h2.16v2.17h2.16v-2.17h2.16v2.36a3.24 3.24 0 0 1 2.16 3.05zm-2.16 4.32c0-.6-.48-1.08-1.08-1.08h-5.4v2.16h5.4c.6 0 1.08-.48 1.08-1.08zm0-4.32c0-.6-.48-1.08-1.08-1.08h-5.4v2.16h5.4c.6 0 1.08-.49 1.08-1.08zm-12.97 2.16c0 2.24.78 4.42 2.2 6.15l-1.67 1.37a11.9 11.9 0 0 1 16.72-16.72l-1.37 1.67a9.74 9.74 0 0 0-15.88 7.53zm18.93-7.52a11.9 11.9 0 0 1-16.72 16.72l1.37-1.67a9.74 9.74 0 0 0 13.68-13.68zm24.3 6.44a4.33 4.33 0 0 1-4.32 4.32c-.13 0-.25-.03-.37-.04l-4.09 11.58a3.22 3.22 0 0 1-2.03 5.75c-.45 0-.88-.1-1.26-.26l-7.77 8.48c.24.45.39.96.39 1.5a3.24 3.24 0 1 1-6.29 1.08h-9.04a3.24 3.24 0 0 1-6.28-1.07c0-.55.14-1.06.39-1.51l-7.02-7.66a4.33 4.33 0 0 1-6.34-3.8c0-.17.03-.33.05-.49l-7.33-2.81a3.23 3.23 0 1 1-3.53-5.15v-23.09a3.24 3.24 0 1 1 2.88-5.74l7.18-5.38a4.3 4.3 0 0 1 3.99-5.97 4.32 4.32 0 0 1 4 2.71l17.69-2.3a3.25 3.25 0 0 1 6.4.67c0 .97-.43 1.83-1.1 2.42l2.06 5.16.13-.02c1.2 0 2.24.67 2.8 1.64l5.9-1.07a3.24 3.24 0 1 1 5.04 3.16l3.78 13.59c2.27.12 4.09 2 4.09 4.3zm-10.8-20.53a1.08 1.08 0 1 0 2.16 0 1.08 1.08 0 0 0-2.17 0zm-7.94 3.63l12.35 13.13.17-.1-3.73-13.45a3.22 3.22 0 0 1-2.57-1.6l-5.9 1.07c-.06.34-.17.65-.32.95zm-1.57 1.49a3.2 3.2 0 0 1-2 .2l-1.9 3.03a16.2 16.2 0 0 1 6.84 11.62l8.83-.35c.1-.5.3-.97.57-1.39zm-13.19 2.44c-7.75 0-14.05 6.3-14.05 14.05 0 7.74 6.3 14.05 14.05 14.05 7.75 0 14.05-6.3 14.05-14.05 0-7.75-6.3-14.05-14.05-14.05zm10.8-5.4a1.08 1.08 0 1 0 2.17 0 1.08 1.08 0 0 0-2.16 0zm-4.32-10.81a1.08 1.08 0 1 0 2.17 0 1.08 1.08 0 0 0-2.17 0zm-20.61 6.17l6.33 9.89a16.1 16.1 0 0 1 15.25-.18l1.9-3.07a3.21 3.21 0 0 1 .4-4.42l-2.06-5.16-.13.01a3.23 3.23 0 0 1-2.87-1.77l-17.71 2.3a4.3 4.3 0 0 1-1.11 2.4zm-1.82 1.16a4.2 4.2 0 0 1-.82.18l-1.2 9.07a3.23 3.23 0 0 1 1.7 3.4l2.67 1.49a16.31 16.31 0 0 1 3.99-4.23zm-3.5-4.09a2.16 2.16 0 1 0 4.32 0 2.16 2.16 0 0 0-4.32 0zm0 15.13a1.08 1.08 0 1 0 0 2.16 1.08 1.08 0 0 0 0-2.16zm-7.73-6.36a3.18 3.18 0 0 1 .1 1.6l5.58 3.35c.4-.32.86-.57 1.38-.68l1.2-9.04a4.33 4.33 0 0 1-1.05-.64zm-4.16.96a1.08 1.08 0 1 0 2.16 0 1.08 1.08 0 0 0-2.16 0zm2.16 29.18a1.08 1.08 0 1 0-2.16 0 1.08 1.08 0 0 0 2.16 0zm0-4.79l7.44-15.61a3.23 3.23 0 0 1-.89-2.94l-5.58-3.35c-.29.24-.61.42-.97.55zm12.97 5.87c.75 0 1.45.2 2.06.54l2.32-2.47a16.13 16.13 0 0 1-2.82-17.94l-2.67-1.49c-.57.5-1.31.82-2.13.82-.12 0-.22-.02-.33-.03l-8.19 17.2c.59.58.95 1.4.95 2.29v.08l7.3 2.81a4.31 4.31 0 0 1 3.51-1.81zm2.16 4.32a2.16 2.16 0 1 0-4.33 0 2.16 2.16 0 0 0 4.33 0zm10.8 12.97a1.08 1.08 0 1 0-2.15 0 1.08 1.08 0 0 0 2.16 0zm11.78-2.3l-4.27-12.34a16.11 16.11 0 0 1-14.53-3.1l-2.3 2.46a4.29 4.29 0 0 1-.02 4.66l7 7.63a3.22 3.22 0 0 1 4.3 1.9h9.05c.17-.46.43-.88.77-1.22zm3.36 2.3a1.08 1.08 0 1 0-2.16 0 1.08 1.08 0 0 0 2.16 0zm7.95-11.46a3.2 3.2 0 0 1-.39-1.51c0-.38.08-.74.2-1.08l-7.21-5.83a16.3 16.3 0 0 1-6.13 4.55l4.2 12.12c.1-.01.2-.04.3-.04.45 0 .88.1 1.27.26zm3.93-1.51a1.08 1.08 0 1 0-2.16 0 1.08 1.08 0 0 0 2.16 0zm3-14.79a4.33 4.33 0 0 1-1.71-2.34l-8.88.36a16.1 16.1 0 0 1-2.48 8.1l7.3 5.91a3.2 3.2 0 0 1 1.69-.48zm4.57-3.58a2.16 2.16 0 1 0-4.33 0 2.16 2.16 0 0 0 4.33 0z"/></defs><g><g transform="translate(-956 -2408)"><use fill="#f09790" xlink:href="#b0i9a"/></g></g></svg>