<svg xmlns="http://www.w3.org/2000/svg" xmlns:xlink="http://www.w3.org/1999/xlink" width="282" height="286" viewBox="0 0 282 286"><defs><path id="xxqpa" d="M321.7 8944.23c3.34-11.73 61.75-217.57 64.05-225.66 2.98-10.49 16.02-15.22 24.97-6.05 7.18 7.35 150.34 155.17 162.55 167.8 8.02 8.3 4.1 21.55-6.93 24.45-12.3 3.24-212.56 54.14-226.98 57.53-10.56 2.5-20.93-6.51-17.65-18.07z"/><path id="xxqpc" d="M486.47 8728.22l105.3 105.31a14.46 14.46 0 0 1 0 20.45L465 8980.75a14.46 14.46 0 0 1-20.45 0l-105.3-105.3a14.46 14.46 0 0 1 0-20.45l126.77-126.78a14.46 14.46 0 0 1 20.45 0z"/><linearGradient id="xxqpb" x1="321.09" x2="577.09" y1="8834.72" y2="8835.64" gradientUnits="userSpaceOnUse"><stop offset="0" stop-color="#8761a8"/><stop offset="1" stop-color="#f4929b"/></linearGradient><linearGradient id="xxqpd" x1="335.01" x2="596.01" y1="8854.99" y2="8853.99" gradientUnits="userSpaceOnUse"><stop offset="0" stop-color="#8761a8"/><stop offset="1" stop-color="#f4929b"/></linearGradient></defs><g><g transform="translate(-317 -8702)"><use fill="#f4929b" xlink:href="#xxqpa"/><use fill="url(#xxqpb)" xlink:href="#xxqpa"/></g><g transform="translate(-317 -8702)"><use fill="#f4929b" xlink:href="#xxqpc"/><use fill="url(#xxqpd)" xlink:href="#xxqpc"/></g></g></svg>