<svg xmlns="http://www.w3.org/2000/svg" xmlns:xlink="http://www.w3.org/1999/xlink" width="288" height="283" viewBox="0 0 288 283"><defs><path id="5e3ya" d="M702.95 8853.43l85.45-136.34a15.62 15.62 0 0 1 21.53-4.94L974.08 8815a15.62 15.62 0 0 1 4.94 21.54l-85.45 136.34a15.62 15.62 0 0 1-21.53 4.94L707.9 8874.97a15.62 15.62 0 0 1-4.95-21.54z"/><path id="5e3yc" d="M714.68 8908.33l128.83-196.03c5.99-9.11 19.84-9.72 25.63 1.72 4.64 9.16 96.83 193.14 104.69 208.86 5.16 10.32-2.57 21.78-13.96 21.24-12.7-.6-219-12.16-233.78-13.26-10.82-.79-18-12.5-11.4-22.53z"/><linearGradient id="5e3yb" x1="700.57" x2="981.57" y1="8845.22" y2="8844.76" gradientUnits="userSpaceOnUse"><stop offset="0" stop-color="#8761a8"/><stop offset="1" stop-color="#f4929b"/></linearGradient><linearGradient id="5e3yd" x1="712.15" x2="975.15" y1="8825.13" y2="8824.45" gradientUnits="userSpaceOnUse"><stop offset="0" stop-color="#8761a8"/><stop offset="1" stop-color="#f4929b"/></linearGradient></defs><g><g transform="translate(-697 -8701)"><use fill="#f4929b" xlink:href="#5e3ya"/><use fill="url(#5e3yb)" xlink:href="#5e3ya"/></g><g transform="translate(-697 -8701)"><use fill="#f4929b" xlink:href="#5e3yc"/><use fill="url(#5e3yd)" xlink:href="#5e3yc"/></g></g></svg>