<svg xmlns="http://www.w3.org/2000/svg" xmlns:xlink="http://www.w3.org/1999/xlink" width="63" height="63" viewBox="0 0 63 63"><defs><path id="vy0ca" d="M1324 3766h-60v-60h60zm-58-2h56v-44h-56zm5-47a4 4 0 1 1 0-8 4 4 0 0 1 0 8zm0-6a2 2 0 1 0 0 4 2 2 0 0 0 0-4zm9 6a4 4 0 1 1 0-8 4 4 0 0 1 0 8zm0-6a2 2 0 1 0 0 4 2 2 0 0 0 0-4zm9 6a4 4 0 1 1 0-8 4 4 0 0 1 0 8zm0-6a2 2 0 1 0 0 4 2 2 0 0 0 0-4zm33 7v-10h-56v10zm-7 23h-19v-19h1c9.49 0 17.28 7.38 17.95 16.7a1 1 0 0 1 .03.49l.02.8zm-17-2h3a1 1 0 1 1 2 0h4a1 1 0 1 1 2 0h3.97a16.03 16.03 0 0 0-13-14.73 1 1 0 0 1-1.97-.24v5.97a1 1 0 1 1 2 0 1 1 0 0 1-2 0v6a1 1 0 1 1 2 0 1 1 0 0 1-2 0zm-5 23c-9.93 0-18-8.08-18-18 0-9.93 8.07-18 18-18h1v17h17v1c0 9.92-8.07 18-18 18zm-1-33.97c-8.36.52-15 7.48-15 15.97 0 8.82 7.18 16 16 16 8.49 0 15.45-6.64 15.97-15H1292zm16 5.97a1 1 0 1 1 0-2 1 1 0 0 1 0 2zm3 3a1 1 0 1 1 0-2 1 1 0 0 1 0 2zm-6-6a1 1 0 1 1 0-2 1 1 0 0 1 0 2zm-3-3a1 1 0 1 1 0-2 1 1 0 0 1 0 2zm0 6a1 1 0 1 1 0-2 1 1 0 0 1 0 2zm3 3a1 1 0 1 1 0-2 1 1 0 0 1 0 2z"/></defs><g><g transform="translate(-1262 -3704)"><use fill="#fff" xlink:href="#vy0ca"/></g></g></svg>