<svg xmlns="http://www.w3.org/2000/svg" xmlns:xlink="http://www.w3.org/1999/xlink" width="57" height="57" viewBox="0 0 57 57"><defs><path id="9u4ua" d="M389 3750c-7.72 0-14-6.28-14-14s6.28-14 14-14 14 6.28 14 14-6.28 14-14 14zm0-26c-6.62 0-12 5.38-12 12s5.38 12 12 12 12-5.38 12-12-5.38-12-12-12zm3.22 39h-6.44a2.78 2.78 0 0 1-2.78-2.78v-2.02a22.84 22.84 0 0 1-5.46-2.26l-1.42 1.43a2.85 2.85 0 0 1-3.94 0l-4.55-4.56a2.76 2.76 0 0 1 0-3.93l1.43-1.42a22.87 22.87 0 0 1-2.26-5.46h-2.02a2.78 2.78 0 0 1-2.78-2.78v-6.44a2.78 2.78 0 0 1 2.78-2.78h2.02a22.81 22.81 0 0 1 2.26-5.46l-1.43-1.42a2.76 2.76 0 0 1 0-3.94l4.55-4.55a2.85 2.85 0 0 1 3.94 0l1.42 1.43a22.9 22.9 0 0 1 5.46-2.26v-2.02a2.78 2.78 0 0 1 2.78-2.78h6.44a2.78 2.78 0 0 1 2.78 2.78v2.02a22.9 22.9 0 0 1 5.46 2.26l1.42-1.43a2.85 2.85 0 0 1 3.94 0l4.55 4.55a2.76 2.76 0 0 1 0 3.94l-1.43 1.42a22.8 22.8 0 0 1 2.26 5.46h2.02a2.78 2.78 0 0 1 2.78 2.78v6.44a2.78 2.78 0 0 1-2.78 2.78h-2.02a22.87 22.87 0 0 1-2.26 5.46l1.43 1.42a2.77 2.77 0 0 1 0 3.93l-4.55 4.56a2.85 2.85 0 0 1-3.94 0l-1.42-1.43a22.84 22.84 0 0 1-5.46 2.26v2.02a2.78 2.78 0 0 1-2.78 2.78zm-14.98-9.59l.68.42a20.86 20.86 0 0 0 6.3 2.62l.78.18v3.59c0 .43.35.78.78.78h6.44c.43 0 .78-.35.78-.78v-3.6l.77-.17c2.24-.52 4.36-1.4 6.31-2.62l.68-.42 2.54 2.54c.3.3.8.3 1.1 0l4.55-4.55a.78.78 0 0 0 0-1.1l-2.54-2.54.42-.68a20.86 20.86 0 0 0 2.62-6.3l.18-.78h3.59c.43 0 .78-.35.78-.78v-6.44a.78.78 0 0 0-.78-.78h-3.6l-.17-.78a20.84 20.84 0 0 0-2.62-6.3l-.42-.68 2.54-2.54a.78.78 0 0 0 0-1.1l-4.55-4.56a.8.8 0 0 0-1.1 0l-2.54 2.54-.68-.42a20.88 20.88 0 0 0-6.3-2.61l-.78-.18v-3.59a.78.78 0 0 0-.78-.78h-6.44a.78.78 0 0 0-.78.78v3.6l-.77.17c-2.24.52-4.36 1.4-6.31 2.61l-.68.42-2.54-2.54a.8.8 0 0 0-1.1 0l-4.55 4.56a.78.78 0 0 0 0 1.1l2.53 2.54-.42.67a20.84 20.84 0 0 0-2.6 6.31l-.19.78h-3.59a.78.78 0 0 0-.78.78v6.44c0 .43.35.78.78.78h3.6l.17.77c.52 2.24 1.4 4.36 2.61 6.31l.42.68-2.53 2.53a.78.78 0 0 0 0 1.11l4.55 4.55c.3.3.8.3 1.1 0zM389 3746a10.01 10.01 0 0 1 0-20 10.01 10.01 0 0 1 0 20zm0-18a8.01 8.01 0 0 0 0 16 8.01 8.01 0 0 0 0-16z"/></defs><g><g transform="translate(-360 -3707)"><use fill="#fff" xlink:href="#9u4ua"/></g></g></svg>