<svg xmlns="http://www.w3.org/2000/svg" xmlns:xlink="http://www.w3.org/1999/xlink" width="62" height="68" viewBox="0 0 62 68"><defs><path id="sblga" d="M713.62 2458.03c0 .8-.3 1.54-.8 2.1a3.12 3.12 0 0 1-1.3 5.05v2.29h-2.1v-2.1h-2.12v2.1h-2.1v-2.1h-2.11v-10.48h2.1v-2.1h2.11v2.1h2.11v-2.1h2.1v2.29a3.14 3.14 0 0 1 2.11 2.95zm-2.1 4.2c0-.58-.47-1.05-1.06-1.05h-5.26v2.1h5.26c.59 0 1.06-.48 1.06-1.06zm0-4.2c0-.58-.47-1.05-1.06-1.05h-5.26v2.1h5.26c.59 0 1.06-.47 1.06-1.05zm-12.65 2.1c0 2.17.77 4.29 2.15 5.97l-1.63 1.33a11.52 11.52 0 0 1 8.97-18.83c2.66 0 5.27.92 7.33 2.6l-1.33 1.62a9.47 9.47 0 0 0-15.48 7.3zm18.46-7.3a11.52 11.52 0 0 1 2.62 7.3 11.57 11.57 0 0 1-18.93 8.92l1.34-1.62a9.47 9.47 0 0 0 15.48-7.3c0-2.17-.76-4.3-2.14-5.97zm-37.42-12.62c0 .8-.3 1.54-.8 2.1a3.12 3.12 0 0 1-1.3 5.04v2.3h-2.11v-2.1h-2.11v2.1h-2.1v-2.1h-2.12v-10.49h2.11v-2.1h2.1v2.1h2.12v-2.1h2.1v2.3a3.14 3.14 0 0 1 2.11 2.95zm-2.1 4.2c0-.59-.48-1.06-1.06-1.06h-5.27v2.1h5.27c.58 0 1.05-.47 1.05-1.05zm0-4.2c0-.58-.48-1.05-1.06-1.05h-5.27v2.1h5.27c.58 0 1.05-.47 1.05-1.05zm2.83-5.2a9.47 9.47 0 0 0-15.48 7.3c0 2.17.76 4.29 2.14 5.96l-1.63 1.33a11.52 11.52 0 0 1 8.97-18.83c2.67 0 5.27.93 7.34 2.6zm2.97 0a11.52 11.52 0 0 1-8.97 18.83c-2.66 0-5.27-.93-7.33-2.6l1.33-1.63a9.47 9.47 0 0 0 15.48-7.3c0-2.18-.76-4.3-2.14-5.97zm8.94-4.24h2.11V2479h-6.32v-48.23h2.1v2.1h2.11zm0 4.2h-2.1v41.93h2.1zm28.45-9.91v2.57l-2.34-.03c-.13-.03-12.7-2.9-21.9-3.1v4.18h-10.53v-4.18c-9.19.2-21.76 3.07-21.89 3.1l-.23.03H662v-2.57l.35-.31c.4-.35 9.52-8.24 23.88-8.62V2414h10.54v2.13c14.36.38 23.49 8.27 23.88 8.62zm-34.77-6.84a39.01 39.01 0 0 0-21.15 7.07c3.42-.73 13.33-2.72 21.15-2.89zm8.43-2.12h-6.32v10.48h6.32zm23.26 9.19a39.11 39.11 0 0 0-21.15-7.07v4.18c7.81.17 17.72 2.16 21.15 2.89zm-16.94 11.77h2.1v2.1h-2.1zm0 4.2h2.1v2.1h-2.1zm2.1-2.1h2.12v2.1h-2.11zm-4.2 0h2.1v2.1h-2.1zm-18.97 18.87h2.1v2.1h-2.1zm0 4.2h2.1v2.1h-2.1zm2.1-2.1h2.11v2.1h-2.1zm-4.2 0h2.1v2.1h-2.1zm-13.7-6.3h2.1v2.1h-2.1zm0 4.2h2.1v2.1h-2.1zm2.1-2.1h2.11v2.1h-2.1zm-4.21 0h2.1v2.1H662zm53.73 16.78h2.1v2.1h-2.1zm0 4.2h2.1v2.09h-2.1zm2.1-2.1h2.12v2.1h-2.11zm-4.2 0h2.1v2.1h-2.1zm-6.33-46.13h2.11v2.1h-2.1zm0 4.19h2.11v2.1h-2.1zm2.11-2.1h2.1v2.1h-2.1zm-4.21 0h2.1v2.1h-2.1zm11.59 10.49h2.1v2.1h-2.1zm0 4.2h2.1v2.09h-2.1zm2.1-2.1H721v2.1h-2.1zm-4.21 0h2.1v2.1h-2.1z"/></defs><g><g transform="translate(-660 -2412)"><use fill="#5874cf" xlink:href="#sblga"/></g></g></svg>