<svg xmlns="http://www.w3.org/2000/svg" xmlns:xlink="http://www.w3.org/1999/xlink" width="307" height="275" viewBox="0 0 307 275"><defs><path id="7od1a" d="M1256.34 8710.3l107.32 107.33a14.74 14.74 0 0 1 0 20.84l-129.2 129.2a14.74 14.74 0 0 1-20.84 0l-107.32-107.32a14.74 14.74 0 0 1 0-20.84l129.2-129.2a14.74 14.74 0 0 1 20.84 0z"/><path id="7od1c" d="M1190.28 8708.8l203.15 117.3c9.44 5.45 10.84 19.25-.24 25.68-8.88 5.17-187.23 107.83-202.46 116.58-10.01 5.75-21.9-1.3-22.01-12.7-.13-12.71-.51-219.35-.28-234.16.17-10.85 11.44-18.7 21.84-12.7z"/><linearGradient id="7od1b" x1="1101.98" x2="1367.98" y1="8838.99" y2="8838.99" gradientUnits="userSpaceOnUse"><stop offset="0" stop-color="#8761a8"/><stop offset="1" stop-color="#f4929b"/></linearGradient><linearGradient id="7od1d" x1="1168.37" x2="1401.37" y1="8838.41" y2="8838.73" gradientUnits="userSpaceOnUse"><stop offset="0" stop-color="#8761a8"/><stop offset="1" stop-color="#f4929b"/></linearGradient></defs><g><g transform="translate(-1099 -8701)"><use fill="#f4929b" xlink:href="#7od1a"/><use fill="url(#7od1b)" xlink:href="#7od1a"/></g><g transform="translate(-1099 -8701)"><use fill="#f4929b" xlink:href="#7od1c"/><use fill="url(#7od1d)" xlink:href="#7od1c"/></g></g></svg>