<svg xmlns="http://www.w3.org/2000/svg" xmlns:xlink="http://www.w3.org/1999/xlink" width="64" height="63" viewBox="0 0 64 63"><defs><path id="lfw2a" d="M664 3726a1 1 0 0 1-1-1v-18h18a1 1 0 1 1 0 2h-16v16a1 1 0 0 1-1 1zm59 41h-17a1 1 0 1 1 0-2h15v-15a1 1 0 1 1 2 0zm-1-41a1 1 0 0 1-1-1v-16h-15a1 1 0 1 1 0-2h17v18a1 1 0 0 1-1 1zm-41 41h-18v-17a1 1 0 1 1 2 0v15h16a1 1 0 1 1 0 2zm13.74-7.1h-.03a1 1 0 0 1-.97-1.03c.6-16.9-1.53-22.3-1.55-22.35a1 1 0 0 1 1.85-.77c.1.23 2.31 5.7 1.7 23.2a1 1 0 0 1-1 .96zm20.26-21.13a1 1 0 0 1-1-.9 31.4 31.4 0 0 0-2.33-9.58 20.1 20.1 0 0 0-26.3-10.74c-1.4.58-2.71 1.27-3.9 2.05a1 1 0 1 1-1.1-1.68c1.3-.84 2.72-1.59 4.22-2.21a22.1 22.1 0 0 1 28.92 11.8c1.34 3.18 2.1 6.3 2.49 10.16a1 1 0 0 1-1 1.1zm-38.2-17.98a1 1 0 1 1 1.4 1.43c-3.65 3.58-5.57 8.23-5.72 13.8-.09 3.2.43 6.7 1.53 10.4a1 1 0 1 1-1.92.58 35.52 35.52 0 0 1-1.6-11.04c.16-6.02 2.34-11.26 6.3-15.17zm33.53 30.99h-.03a1 1 0 0 1-.97-1.03c.16-6.17.15-10.77-.46-14.58v-.01a26.06 26.06 0 0 0-1.05-4.27c-1.95-5.76-8.43-10.8-14.14-11a15.24 15.24 0 0 0-15.83 15.12 15.2 15.2 0 0 0 .58 4.28c.25.88.5 1.83.65 2.82.29 1.95.6 5.58.47 11.75a1 1 0 0 1-1 .98h-.02a1 1 0 0 1-.98-1.02c.13-6.04-.17-9.54-.45-11.42a20.4 20.4 0 0 0-.6-2.57 17.24 17.24 0 0 1 17.25-21.94c6.57.23 13.73 5.78 15.97 12.36.49 1.45.85 2.95 1.12 4.59.64 3.97.66 8.67.48 14.97a1 1 0 0 1-1 .97zm-26.96 6.5h-.04a1 1 0 0 1-.96-1.03c.27-7.78-.05-13.78-.9-16.91l-.04-.1c-.37-1.4-.55-2.83-.5-4.27.11-4.15 1.98-7.79 5.1-9.98a1 1 0 1 1 1.16 1.63c-2.61 1.83-4.17 4.9-4.27 8.4-.03 1.25.12 2.5.45 3.7.94 3.46 1.28 9.51 1 17.6a1 1 0 0 1-1 .96zm21.94-2.44h-.03a1 1 0 0 1-.97-1.03c.34-9.67.36-14.66-.4-18.62-.28-1.47-.68-2.8-1.23-4.1a10.37 10.37 0 0 0-11.79-6.1 1 1 0 0 1-.43-1.95 12.36 12.36 0 0 1 14.06 7.28c.6 1.41 1.05 2.88 1.35 4.49.8 4.15.79 9.24.44 19.07a1 1 0 0 1-1 .96zm-4.8.38h-.02a1 1 0 0 1-.98-1.02l.03-1.99a1 1 0 0 1 1-1 1 1 0 0 1 1 1.01l-.03 2.02a1 1 0 0 1-1 .98zm0-6.07a1 1 0 0 1-1-.98c-.16-6.9-.86-10.83-1.42-12.91a13.58 13.58 0 0 0-.65-1.94 4.69 4.69 0 0 0-9.01 1.7c-.02.63.09 1.23.3 1.81.21.63 1.84 6.1 1.32 20.92a1 1 0 0 1-1 .96h-.03a1 1 0 0 1-.97-1.03c.52-14.72-1.12-19.96-1.2-20.18a6.7 6.7 0 0 1 6.26-9.05c2.7 0 5.12 1.6 6.17 4.08.14.34.43 1.01.75 2.21.84 3.14 1.35 7.77 1.48 13.39a1 1 0 0 1-.98 1.02h-.02zM669 3762a1 1 0 1 1-2 0 1 1 0 0 1 2 0zm4 0a1 1 0 1 1-2 0 1 1 0 0 1 2 0zm4 0a1 1 0 1 1-2 0 1 1 0 0 1 2 0zm-2-2a1 1 0 1 1-2 0 1 1 0 0 1 2 0zm4 0a1 1 0 1 1-2 0 1 1 0 0 1 2 0zm2 2a1 1 0 1 1-2 0 1 1 0 0 1 2 0zm4 0a1 1 0 1 1-2 0 1 1 0 0 1 2 0zm-2-2a1 1 0 1 1-2 0 1 1 0 0 1 2 0zm-12 0a1 1 0 1 1-2 0 1 1 0 0 1 2 0zm18 2a1 1 0 1 1-2 0 1 1 0 0 1 2 0zm4 0a1 1 0 1 1-2 0 1 1 0 0 1 2 0zm4 0a1 1 0 1 1-2 0 1 1 0 0 1 2 0zm2-2a1 1 0 1 1-2 0 1 1 0 0 1 2 0zm-12 0a1 1 0 1 1-2 0 1 1 0 0 1 2 0zm14 2a1 1 0 1 1-2 0 1 1 0 0 1 2 0zm4 0a1 1 0 1 1-2 0 1 1 0 0 1 2 0zm-2-2a1 1 0 1 1-2 0 1 1 0 0 1 2 0zm6 2a1 1 0 1 1-2 0 1 1 0 0 1 2 0zm4 0a1 1 0 1 1-2 0 1 1 0 0 1 2 0zm4 0a1 1 0 1 1-2 0 1 1 0 0 1 2 0zm-2-2a1 1 0 1 1-2 0 1 1 0 0 1 2 0zm4 0a1 1 0 1 1-2 0 1 1 0 0 1 2 0zm-12 0a1 1 0 1 1-2 0 1 1 0 0 1 2 0zm4 0a1 1 0 1 1-2 0 1 1 0 0 1 2 0zm-42-2a1 1 0 1 1-2 0 1 1 0 0 1 2 0zm4 0a1 1 0 1 1-2 0 1 1 0 0 1 2 0zm4 0a1 1 0 1 1-2 0 1 1 0 0 1 2 0zm-2-2a1 1 0 1 1-2 0 1 1 0 0 1 2 0zm6 2a1 1 0 1 1-2 0 1 1 0 0 1 2 0zm-10-2a1 1 0 1 1-2 0 1 1 0 0 1 2 0zm38 2a1 1 0 1 1-2 0 1 1 0 0 1 2 0zm4 0a1 1 0 1 1-2 0 1 1 0 0 1 2 0zm4 0a1 1 0 1 1-2 0 1 1 0 0 1 2 0zm-2-2a1 1 0 1 1-2 0 1 1 0 0 1 2 0zm4 0a1 1 0 1 1-2 0 1 1 0 0 1 2 0zm-8 0a1 1 0 1 1-2 0 1 1 0 0 1 2 0zm-42-2a1 1 0 1 1-2 0 1 1 0 0 1 2 0zm4 0a1 1 0 1 1-2 0 1 1 0 0 1 2 0zm-2-2a1 1 0 1 1-2 0 1 1 0 0 1 2 0zm42 2a1 1 0 1 1-2 0 1 1 0 0 1 2 0zm4 0a1 1 0 1 1-2 0 1 1 0 0 1 2 0zm-2-2a1 1 0 1 1-2 0 1 1 0 0 1 2 0zm4 0a1 1 0 1 1-2 0 1 1 0 0 1 2 0zm-50-2a1 1 0 1 1-2 0 1 1 0 0 1 2 0zm4 0a1 1 0 1 1-2 0 1 1 0 0 1 2 0zm-2-2a1 1 0 1 1-2 0 1 1 0 0 1 2 0zm46 2a1 1 0 1 1-2 0 1 1 0 0 1 2 0zm2-2a1 1 0 1 1-2 0 1 1 0 0 1 2 0zm-50-2a1 1 0 1 1-2 0 1 1 0 0 1 2 0zm48 0a1 1 0 1 1-2 0 1 1 0 0 1 2 0zm2-2a1 1 0 1 1-2 0 1 1 0 0 1 2 0zm-50-2a1 1 0 1 1-2 0 1 1 0 0 1 2 0zm48 0a1 1 0 1 1-2 0 1 1 0 0 1 2 0zm2-2a1 1 0 1 1-2 0 1 1 0 0 1 2 0z"/></defs><g><g transform="translate(-661 -3705)"><use fill="#fff" xlink:href="#lfw2a"/></g></g></svg>