<svg xmlns="http://www.w3.org/2000/svg" xmlns:xlink="http://www.w3.org/1999/xlink" width="58" height="63" viewBox="0 0 58 63"><defs><path id="ydpza" d="M962 3720a1 1 0 0 1 .55-.9l25.97-12.98a1 1 0 0 1 .96 0l25.95 12.98a1 1 0 0 1 .57.9v32a1 1 0 0 1-.55.9l-25.99 12.99a1 1 0 0 1-.92 0l-25.97-12.99a1 1 0 0 1-.57-.92zm26 43.38v-30.74l-24-11.08v28.88l.4-.19a1 1 0 0 1 .9 1.78zm26-41.82l-24 11.08v6.96a1 1 0 0 1 .66.06l1.81.84a1 1 0 0 1-.83 1.82l-1.64-.76v21.82l22.7-11.35-1.09-.5a1 1 0 0 1 .84-1.81l1.55.72zm-19.29 6.7l17.98-8.3-22.85-11.42a1 1 0 0 1-1.68 0l-22.85 11.42 16.75 7.73 5.94 2.74v-.43a1 1 0 1 1 2 0v.43zm-26.26 22.22a1 1 0 0 1-.42-1.9l1.81-.84a1 1 0 0 1 .84 1.81l-1.81.84a1 1 0 0 1-.42.1zm39.95-.53a1 1 0 0 1-.42-.09l-1.82-.84a1 1 0 0 1 .84-1.81l1.82.83a1 1 0 0 1-.42 1.91zm-34.5-1.98a1 1 0 0 1-.42-1.9l1.81-.85a1 1 0 0 1 .84 1.82l-1.82.84c-.13.06-.27.09-.41.09zm29.05-.53a1 1 0 0 1-.42-.1l-1.81-.83a1 1 0 0 1 .83-1.82l1.82.84a1 1 0 0 1-.42 1.9zm-23.6-1.99a1 1 0 0 1-.43-1.9l1.82-.84a1 1 0 0 1 .84 1.81l-1.82.84a1 1 0 0 1-.42.1zm18.15-.53a1 1 0 0 1-.42-.09l-1.81-.84a1 1 0 0 1 .84-1.81l1.81.83a1 1 0 0 1-.42 1.91zm-12.7-1.98a1 1 0 0 1-.43-1.9l1.82-.85a1 1 0 0 1 .84 1.82l-1.82.84a1 1 0 0 1-.42.09zM989 3727a1 1 0 0 1-1-1v-2a1 1 0 1 1 2 0v2a1 1 0 0 1-1 1zm0-6a1 1 0 0 1-1-1v-2a1 1 0 1 1 2 0v2a1 1 0 0 1-1 1zm0-6a1 1 0 0 1-1-1v-2a1 1 0 0 1 2 0v2a1 1 0 0 1-1 1z"/></defs><g><g transform="translate(-960 -3704)"><use fill="#fff" xlink:href="#ydpza"/></g></g></svg>