<svg xmlns="http://www.w3.org/2000/svg" xmlns:xlink="http://www.w3.org/1999/xlink" width="65" height="65" viewBox="0 0 65 65"><defs><path id="u14ma" d="M395 2450h-13v12.51c0 3.15-.97 6.16-2.8 8.72l-2.2 3.09v5.68h-2v-6.32l2.58-3.61a12.93 12.93 0 0 0 2.42-7.56V2449a2 2 0 0 0-4 0v5.88a6.09 6.09 0 0 1-6.12 6.12H368v-2h1.88a4.1 4.1 0 0 0 3.58-2.13l-2-2a4.97 4.97 0 0 1-1.46-3.53V2449h.03a4.99 4.99 0 0 1-2.03-4v-8.65c-.21.23-.4.48-.56.76l-2.6 4.79a15.05 15.05 0 0 0-1.84 7.18v13.3c0 2.28.4 4.52 1.21 6.66l1.79 4.78v6.18h-2v-5.82l-1.66-4.44a20.93 20.93 0 0 1-1.34-7.37v-13.3c0-2.83.72-5.64 2.08-8.13l2.6-4.79a6.07 6.07 0 0 1 2.32-2.33V2423a5 5 0 0 1 5-5h5v27a4 4 0 0 1 3.86 3H395zm-21 0h-1c-.34 0-.68-.04-1-.1v1.44c0 .8.32 1.57.88 2.12l1.12 1.12zm2-30h-3a3 3 0 0 0-3 3v22a3 3 0 0 0 3 3h1.14a4 4 0 0 1 1.86-2.45zm47 3v22a5 5 0 0 1-5 5v-2a3 3 0 0 0 3-3v-22a3 3 0 0 0-3-3h-1v27h-2v-27h-35v-2h38a5 5 0 0 1 5 5zm-51 7h2v8h-2zm49.82 23.14a3.94 3.94 0 0 1 1.18 2.82v12.73c0 2.4-.94 4.66-2.64 6.36l-3.36 3.36v1.59h-2v-2.42l3.95-3.95a6.95 6.95 0 0 0 2.05-4.94v-12.73a1.95 1.95 0 0 0-1.99-1.96 2.04 2.04 0 0 0-2.01 2.03v5.97h-2v-10a2 2 0 0 0-4 0v10h-2v-12a2 2 0 0 0-4 0v12h-2v-24a2 2 0 0 0-4 0v24h-2v-8h-.07a3.94 3.94 0 0 0-3.93 3.93v10.76c0 1.87.73 3.62 2.05 4.94l3.95 3.95v2.42h-2v-1.59l-3.37-3.36a8.93 8.93 0 0 1-2.63-6.36v-10.76a5.94 5.94 0 0 1 5.93-5.93h.07v-14a4 4 0 0 1 8 0v8.55a3.96 3.96 0 0 1 5.76 2.14A4 4 0 0 1 417 2452v.57a3.96 3.96 0 0 1 4.82.57zM396 2432c0 .77-.29 1.47-.77 2a2.99 2.99 0 0 1-1.23 4.81v2.19h-2v-2h-2v2h-2v-2h-2v-10h2v-2h2v2h2v-2h2v2.18a3 3 0 0 1 2 2.82zm-2 4a1 1 0 0 0-1-1h-5v2h5a1 1 0 0 0 1-1zm0-4a1 1 0 0 0-1-1h-5v2h5a1 1 0 0 0 1-1zm-3-7a9.01 9.01 0 1 0 3.6 17.25l.8 1.83A11.01 11.01 0 0 1 380 2434a11.01 11.01 0 0 1 21.78-2.2l-1.96.4a9.02 9.02 0 0 0-8.82-7.2zm16 1a3 3 0 1 1 6 0 3 3 0 0 1-6 0zm2 0a1 1 0 1 0 2 0 1 1 0 0 0-2 0zm-2 8a3 3 0 1 1 6 0 3 3 0 0 1-6 0zm2 0a1 1 0 1 0 2 0 1 1 0 0 0-2 0zm-2 8a3 3 0 1 1 6 0 3 3 0 0 1-6 0zm2 0a1 1 0 1 0 2 0 1 1 0 0 0-2 0z"/></defs><g><g transform="translate(-359 -2416)"><use fill="#16bf86" xlink:href="#u14ma"/></g></g></svg>