<svg xmlns="http://www.w3.org/2000/svg" xmlns:xlink="http://www.w3.org/1999/xlink" width="75" height="74" viewBox="0 0 75 74"><defs><path id="2mhfa" d="M1292.5 2427.05c9.56 0 17.34 7.83 17.34 17.45s-7.78 17.45-17.34 17.45a17.42 17.42 0 0 1-17.34-17.45c0-9.62 7.78-17.45 17.34-17.45zm0 2.33a15.1 15.1 0 0 0-15.03 15.12 15.1 15.1 0 0 0 15.03 15.12 15.1 15.1 0 0 0 15.03-15.12 15.1 15.1 0 0 0-15.03-15.12zm-1.16 6.98v2.32h2.32v-2.32h2.3v2.54a3.48 3.48 0 0 1 1.43 5.6 3.49 3.49 0 0 1-1.42 5.6v2.54h-2.31v-2.32h-2.32v2.32h-2.3v-2.32h-2.32v-11.64h2.31v-2.32zm4.63 10.47c0-.65-.52-1.17-1.16-1.17h-5.78v2.33h5.78c.64 0 1.16-.52 1.16-1.16zm-6.94-5.82v2.32h5.78a1.16 1.16 0 0 0 0-2.32zm3.47-9.3a12.7 12.7 0 0 1 8.05 2.88l-1.47 1.8a10.39 10.39 0 0 0-16.98 8.1c0 2.42.83 4.77 2.34 6.63l-1.79 1.48a12.87 12.87 0 0 1-2.87-8.1c0-7.06 5.7-12.8 12.72-12.8zm10.4 12.79c0-2.4-.83-4.76-2.34-6.62l1.79-1.48a12.87 12.87 0 0 1 2.87 8.1c0 7.05-5.7 12.8-12.72 12.8a12.7 12.7 0 0 1-8.05-2.9l1.47-1.8a10.38 10.38 0 0 0 16.98-8.1zm-25.68-21.04l15.28-3.42 21.97 4.91v24.2h-2.32v-22.33l-19.65-4.4-14.78 3.31zm-13.62 3.6h2.31v2.32h-2.31zm57.8 37.21v3.5h4.86l-10.64 12.23-10.64-12.24h4.86v-6.14c-1.26 1.3-2.7 2.4-4.32 3.22l-13.02 6.55-13.02-6.55a16.2 16.2 0 0 1-8.95-14.56V2438l-11.9 11.97-1.63-1.64 15.85-15.95v-13.47h2.07l-5.54-6.38-5.55 6.38h2.08v5.81h-2.31v-3.49h-4.86l10.64-12.23 10.64 12.23h-4.86v12.12l-2.31 2.32v14.6c0 5.33 2.94 10.1 7.66 12.49l11.99 6.03 11.99-6.03a13.9 13.9 0 0 0 5.35-4.79v-2.32l16.53-16.63 1.63 1.65-15.85 15.94v13.48h-2.07l5.54 6.38 5.55-6.38h-2.08v-5.82zm-2.31-4.65h2.31v2.33h-2.31z"/></defs><g><g transform="translate(-1255 -2407)"><use fill="#ffae57" xlink:href="#2mhfa"/></g></g></svg>